<svg width="25" height="20" viewBox="0 0 25 20" fill="none" xmlns="http://www.w3.org/2000/svg">
<path d="M0 1.66667C0 0.744792 0.797991 0 1.78571 0L23.2143 0C24.202 0 25 0.744792 25 1.66667C25 2.58854 24.202 3.33333 23.2143 3.33333L1.78571 3.33333C0.797991 3.33333 0 2.58854 0 1.66667ZM0 10C0 9.07812 0.797991 8.33333 1.78571 8.33333L23.2143 8.33333C24.202 8.33333 25 9.07812 25 10C25 10.9219 24.202 11.6667 23.2143 11.6667L1.78571 11.6667C0.797991 11.6667 0 10.9219 0 10ZM25 18.3333C25 19.2552 24.202 20 23.2143 20L1.78571 20C0.797991 20 0 19.2552 0 18.3333C0 17.4115 0.797991 16.6667 1.78571 16.6667L23.2143 16.6667C24.202 16.6667 25 17.4115 25 18.3333Z" fill="#FD9325"/>
</svg>
