<svg width="24" height="24" viewBox="0 0 24 24" fill="none" xmlns="http://www.w3.org/2000/svg">
<path d="M17.7141 4.96406L23.4703 10.7203C23.8078 11.0578 24 11.5219 24 12C24 12.4781 23.8078 12.9422 23.4703 13.2797L17.7141 19.0359C17.4141 19.3359 17.0109 19.5 16.5891 19.5C15.7125 19.5 15 18.7875 15 17.9109V15H9C8.17031 15 7.5 14.3297 7.5 13.5V10.5C7.5 9.67031 8.17031 9 9 9H15V6.08906C15 5.2125 15.7125 4.5 16.5891 4.5C17.0109 4.5 17.4141 4.66875 17.7141 4.96406ZM7.5 4.5H4.5C3.67031 4.5 3 5.17031 3 6V18C3 18.8297 3.67031 19.5 4.5 19.5H7.5C8.32969 19.5 9 20.1703 9 21C9 21.8297 8.32969 22.5 7.5 22.5H4.5C2.01562 22.5 0 20.4844 0 18V6C0 3.51562 2.01562 1.5 4.5 1.5H7.5C8.32969 1.5 9 2.17031 9 3C9 3.82969 8.32969 4.5 7.5 4.5Z" fill="#FD9325"/>
</svg>
