<svg width="20" height="20" viewBox="0 0 20 20" fill="none" xmlns="http://www.w3.org/2000/svg">
<path d="M0 0.9375C0 0.417969 0.374705 0 0.840461 0L2.43383 0C3.20426 0 3.88713 0.5 4.2058 1.25L18.5987 1.25C19.5197 1.25 20.1921 2.22656 19.9504 3.21875L18.5146 9.16797C18.217 10.3945 17.2189 11.25 16.0808 11.25H5.97778L6.16688 12.3633C6.24392 12.8047 6.59061 13.125 6.99333 13.125H17.0894C17.5551 13.125 17.9298 13.543 17.9298 14.0625C17.9298 14.582 17.5551 15 17.0894 15H6.99333C5.78167 15 4.7416 14.0391 4.51748 12.7148L2.71049 2.12891C2.68597 1.98047 2.57041 1.875 2.43383 1.875H0.840461C0.374705 1.875 0 1.45703 0 0.9375ZM4.48246 18.125C4.48246 17.8788 4.52593 17.635 4.61041 17.4075C4.69488 17.18 4.8187 16.9733 4.97479 16.7992C5.13087 16.6251 5.31618 16.487 5.52012 16.3927C5.72406 16.2985 5.94264 16.25 6.16338 16.25C6.38412 16.25 6.6027 16.2985 6.80664 16.3927C7.01058 16.487 7.19588 16.6251 7.35197 16.7992C7.50806 16.9733 7.63187 17.18 7.71635 17.4075C7.80082 17.635 7.8443 17.8788 7.8443 18.125C7.8443 18.3712 7.80082 18.615 7.71635 18.8425C7.63187 19.07 7.50806 19.2767 7.35197 19.4508C7.19588 19.6249 7.01058 19.763 6.80664 19.8573C6.6027 19.9515 6.38412 20 6.16338 20C5.94264 20 5.72406 19.9515 5.52012 19.8573C5.31618 19.763 5.13087 19.6249 4.97479 19.4508C4.8187 19.2767 4.69488 19.07 4.61041 18.8425C4.52593 18.615 4.48246 18.3712 4.48246 18.125ZM16.2489 16.25C16.6947 16.25 17.1223 16.4475 17.4375 16.7992C17.7527 17.1508 17.9298 17.6277 17.9298 18.125C17.9298 18.6223 17.7527 19.0992 17.4375 19.4508C17.1223 19.8025 16.6947 20 16.2489 20C15.8031 20 15.3755 19.8025 15.0603 19.4508C14.7451 19.0992 14.568 18.6223 14.568 18.125C14.568 17.6277 14.7451 17.1508 15.0603 16.7992C15.3755 16.4475 15.8031 16.25 16.2489 16.25Z" fill="#FD9325"/>
</svg>
