<svg width="20" height="20" viewBox="0 0 20 20" fill="none" xmlns="http://www.w3.org/2000/svg">
<path d="M10 10C11.5155 10 12.969 9.47322 14.0406 8.53553C15.1122 7.59785 15.7143 6.32608 15.7143 5C15.7143 3.67392 15.1122 2.40215 14.0406 1.46447C12.969 0.526784 11.5155 0 10 0C8.48448 0 7.03103 0.526784 5.95939 1.46447C4.88775 2.40215 4.28571 3.67392 4.28571 5C4.28571 6.32608 4.88775 7.59785 5.95939 8.53553C7.03103 9.47322 8.48448 10 10 10ZM7.95982 11.875C3.5625 11.875 0 14.9922 0 18.8398C0 19.4805 0.59375 20 1.32589 20H18.6741C19.4063 20 20 19.4805 20 18.8398C20 14.9922 16.4375 11.875 12.0402 11.875H7.95982Z" fill="#FD9325"/>
</svg>
