<svg width="31" height="30" viewBox="0 0 31 30" fill="none" xmlns="http://www.w3.org/2000/svg">
<path d="M25.8359 4.68863C23.0667 1.8401 19.3504 0.245069 15.3797 0.193753C7.184 0.0878338 0.428727 6.67073 0.322808 14.8665C0.288972 17.4846 0.938894 20.0512 2.20873 22.3245L1.52599e-05 29.9975L7.90779 28.0303C10.0619 29.2435 12.4979 29.8978 14.9887 29.93L14.9954 29.9301C23.1845 30.0359 30.0871 23.4549 30.193 15.2592C30.2443 11.2886 28.6052 7.53715 25.8359 4.68863ZM15.0278 27.4259C12.8048 27.3971 10.6363 26.7731 8.75593 25.6237L8.31077 25.35L3.62121 26.515L4.92558 21.9712L4.63702 21.4987C3.42372 19.5141 2.80356 17.2358 2.83376 14.8989C2.92177 8.08923 8.5376 2.6167 15.354 2.70479C18.6551 2.74745 21.7386 4.07313 24.0386 6.4401C26.3385 8.80707 27.7314 11.9258 27.682 15.2268C27.5939 22.0431 21.8375 27.5139 15.0278 27.4259ZM21.9236 18.2597C21.5578 18.0675 19.7414 17.1466 19.4015 17.0217C19.0616 16.89 18.8146 16.8266 18.5621 17.1983C18.3095 17.5701 17.589 18.3912 17.3647 18.6428C17.1472 18.8878 16.9258 18.9184 16.56 18.7262C14.3913 17.6065 12.9694 16.731 11.5617 14.2416C11.1885 13.5804 11.9513 13.6372 12.6794 12.2268C12.8031 11.9806 12.7456 11.7656 12.6543 11.5769C12.563 11.3882 11.8434 9.55062 11.545 8.8034C11.253 8.07635 10.9437 8.17281 10.7162 8.15647C10.5021 8.14031 10.2543 8.13711 10.0066 8.13391C9.75885 8.13071 9.35589 8.21926 9.00964 8.58312C8.66331 8.95367 7.6942 9.83854 7.67058 11.6665C7.64695 13.4945 8.95659 15.2794 9.13417 15.5295C9.31845 15.7797 11.7006 19.5608 15.4093 21.2227C17.7531 22.2709 18.676 22.3699 19.8568 22.211C20.5746 22.1132 22.0646 21.3422 22.3839 20.4757C22.7031 19.6092 22.7127 18.866 22.621 18.7108C22.5361 18.5422 22.2896 18.4453 21.9236 18.2597Z" fill="white"/>
</svg>
